# xmcd
#
# Track frame offsets:
#        150
#        10745
#        23290
#        41477
#        52904
#        65917
#        79216
#        90695
#        103448
#        115629
#        130267
#        142981
#        154720
#        165562
#        177145
#        189417
#
# Disc length: 2698 seconds
#
# Revision: 0
# Processed by: cddbd v1.5.2PL0 Copyright (c) Steve Scherf et al.
# Submitted via: CDGFix 3.7h
#
DISCID=c50a8810
DTITLE=Various Artist - CB6060
DYEAR=1900
DGENRE=Karaoke
TTITLE0=Flatt and Scruggs - Salty Dog
TTITLE1=Bill Monroe - Blue Moon Of Kentucky
TTITLE2=Bill Monroe - In The Pines
TTITLE3=Bill Monroe - Dark Hollow
TTITLE4=Jimmy Martin - Honey You Don't Know My Mind
TTITLE5=Ralph Stanley - Little Maggie
TTITLE6=Country Gentlemen - Nine Pound Hammer
TTITLE7=Flatt and Scruggs - Roll In My Sweet Baby's Arms
TTITLE8=Country Gentlemen - Fox On The Run
TTITLE9=Grandpa Jones - Mountain Dew
TTITLE10=Mac Wiseman - Footprints In The Snow
TTITLE11=Flatt and Scruggs - I'll Go Steppin' Too
TTITLE12=Stanley Brothers - Pig In The Pen
TTITLE13=Jim and Jesse - Old Slew Foot
TTITLE14=Bill Monroe - Little Georgia Rose
TTITLE15=Jimmie Martin - Long Journey Home
EXTD=
EXTT0=
EXTT1=
EXTT2=
EXTT3=
EXTT4=
EXTT5=
EXTT6=
EXTT7=
EXTT8=
EXTT9=
EXTT10=
EXTT11=
EXTT12=
EXTT13=
EXTT14=
EXTT15=
PLAYORDER=
